<?xml version="1.0" encoding="utf-8"?>
<!-- Generator: Adobe Illustrator 30.4.0, SVG Export Plug-In . SVG Version: 9.03 Build 0)  -->
<svg version="1.1" id="Layer_1" xmlns="http://www.w3.org/2000/svg" xmlns:xlink="http://www.w3.org/1999/xlink" x="0px" y="0px"
	 viewBox="0 0 508.8 183.21" style="enable-background:new 0 0 508.8 183.21;" xml:space="preserve">
<style type="text/css">
	.st0{fill:#090B63;}
	.st1{enable-background:new    ;}
</style>
<path class="st0" d="M47.83,168.94c13.75-1.1,11.16-13.97,13.56-24.02c1.48-6.19,5.03-11.24,10.78-14.12c2.75-1.38,6.57-2.54,9.58-2
	c-0.11,2.91,0.15,5.87,0.03,8.8c-0.85,19.75-6.51,42.5-29.73,44.97H4.02c0.05-2.7-0.06-5.41,0-8.11
	C4.76,134.4,3.58,94.25,4.27,54.21c0.15-8.42-0.43-15.02,2.12-23.25c3.9-12.65,15.06-24.55,27.7-28.69
	c7.61-2.5,15.48-1.64,23.38-1.75c32.93-0.49,65.92-0.57,98.9-0.5l0.81,0.36c-1.83,3.16-4.69,5.76-7.67,7.83
	c-5.78,4.01-11.96,5.92-18.97,6.4H44.55c-14.78,1.69-24.93,13.87-26.43,28.3l-0.24,126.03H47.83z"/>
<path class="st0" d="M131.67,62.15C113.7,73.66,93.7,70.9,73.44,73.09c-16.95,1.83-29.08,6.84-38.84,21.3
	c-0.27,0.39-2.1,4.37-2.86,3.6c-0.28-1.58-0.9-3.25-1.16-4.83c-1.64-9.99-0.96-21.99,4.44-30.76
	c12.39-20.12,42.34-19.97,63.11-22.17c18.22-1.92,39.25-4.59,53.89-16.59c1.13-0.93,2.37-2.44,3.51-3.3
	c0.26-0.2,0.42-0.43,0.83-0.34c0.41,0.26,0.27,0.37,0.26,0.7C156.08,37.26,145.35,53.39,131.67,62.15L131.67,62.15z"/>
<path class="st0" d="M59.56,124.87c-6.43,5.33-9.85,12.23-11.61,20.34c-0.92,0.64-4.17-3.96-4.61-4.66
	c-6.2-9.83-7.59-24.57-2.7-35.19c6.34-13.77,22.2-18.58,36.12-20.26c17.85-2.16,36.22-1.86,52.86-9.62c1.31-0.61,5.25-3.1,6.13-3.28
	c1.5-0.3,0.25,2.8,0.12,3.41c-2.83,12.79-11.98,25.93-23.39,32.52C95.55,117.92,75.58,111.6,59.56,124.87L59.56,124.87z"/>
<path class="st0" d="M170.57,12.96c-0.3,1.11,0.55,2.04,0.69,2.95c1.27,8.34,0.17,20.98,0.24,29.83c0.19,24.07,0.2,48.44,0.29,72.34
	c0.06,15.4,1.99,28.73-5.97,42.7c-7.58,13.31-20.88,21.37-36.23,22.02c-18.77,0.81-37.78-0.35-56.63,0.21
	c-0.39,0.01-2.43,0.64-1.87-0.46c0.24-0.48,3.82-2.95,4.59-3.63c1.82-1.62,3.66-3.73,5.12-5.69c0.55-0.74,1.93-3.36,2.56-3.55
	l38.02-0.04c7.42-0.41,14.23-0.26,20.98-3.69c9.87-5.02,15.43-15.24,16.49-26.03V51.37c6.64-10.01,9.99-21.4,10.8-33.36
	c0.11-1.66-0.08-3.38,0-5.05h0.94L170.57,12.96z"/>
<g class="st1">
	<path class="st0" d="M232.99,59.69v11.09h-29.75v13.33h22.09V95.3h-22.09v27.5h-11.75V59.69H232.99z"/>
</g>
<g class="st1">
	<path class="st0" d="M268.63,124.25c-18.31,0-33.36-14.48-33.36-32.92c0-18.39,15.05-33.09,33.36-33.09
		c18.31,0,33.4,14.7,33.4,33.09C302.03,109.82,286.93,124.25,268.63,124.25z M290.15,91.33c0-12.01-9.37-21.87-21.52-21.87
		c-12.1,0-21.52,9.86-21.52,21.87c0,11.97,9.46,21.78,21.52,21.78C280.68,113.12,290.15,103.3,290.15,91.33z"/>
</g>
<g class="st1">
	<path class="st0" d="M332.47,101.02h-10.56v21.78h-11.88V59.69h23.98c11.49,0,21.83,8.85,21.83,20.68
		c0,7.48-4.22,14.96-11.31,17.87l15.62,24.56h-14.04L332.47,101.02z M321.65,90.1h12.37c5.5,0,9.9-3.83,9.9-9.46
		c0-5.59-4.45-9.46-9.9-9.46h-12.37V90.1z"/>
</g>
<g class="st1">
	<path class="st0" d="M395.49,124.25c-18.31,0-33.36-14.48-33.36-32.92c0-18.39,15.05-33.09,33.36-33.09s33.4,14.7,33.4,33.09
		C428.89,109.82,413.79,124.25,395.49,124.25z M417.01,91.33c0-12.01-9.37-21.87-21.52-21.87c-12.1,0-21.52,9.86-21.52,21.87
		c0,11.97,9.46,21.78,21.52,21.78S417.01,103.3,417.01,91.33z"/>
</g>
<g class="st1">
	<path class="st0" d="M482.44,59.69v9.2l-36.22,42.69h36.22v11.22h-51.97v-9.2l36.3-42.69h-36.3V59.69H482.44z"/>
	<path class="st0" d="M496.87,123.68c-3.79,0-6.82-3.12-6.82-6.86c0-3.74,3.04-6.87,6.82-6.87c3.7,0,6.82,3.17,6.82,6.87
		C503.69,120.51,500.57,123.68,496.87,123.68z"/>
</g>
</svg>
