<?xml version="1.0" encoding="utf-8"?>
<!-- Generator: Adobe Illustrator 30.4.0, SVG Export Plug-In . SVG Version: 9.03 Build 0)  -->
<svg version="1.1" id="Layer_1" xmlns="http://www.w3.org/2000/svg" xmlns:xlink="http://www.w3.org/1999/xlink" x="0px" y="0px"
	 viewBox="0 0 595.28 841.89" style="enable-background:new 0 0 595.28 841.89;" xml:space="preserve">
<style type="text/css">
	.st0{enable-background:new    ;}
	.st1{fill:#090B63;}
</style>
<g>
	<g class="st0">
		<path class="st1" d="M174.53,604.95v14.81H134.8v17.8h29.5v14.93h-29.5v36.73h-15.69v-84.27H174.53z"/>
		<path class="st1" d="M219.95,691.16c-24.45,0-44.54-19.33-44.54-43.96c0-24.56,20.1-44.19,44.54-44.19s44.6,19.63,44.6,44.19
			C264.56,671.88,244.4,691.16,219.95,691.16z M248.69,647.2c0-16.04-12.52-29.2-28.74-29.2c-16.16,0-28.74,13.16-28.74,29.2
			c0,15.98,12.63,29.09,28.74,29.09S248.69,663.18,248.69,647.2z"/>
		<path class="st1" d="M304.81,660.13h-14.1v29.09h-15.87v-84.27h32.03c15.34,0,29.15,11.81,29.15,27.62
			c0,9.99-5.64,19.98-15.1,23.86l20.86,32.79h-18.75L304.81,660.13z M290.35,645.55h16.51c7.35,0,13.22-5.11,13.22-12.63
			c0-7.46-5.94-12.63-13.22-12.63h-16.51V645.55z"/>
		<path class="st1" d="M386.9,691.16c-24.45,0-44.54-19.33-44.54-43.96c0-24.56,20.1-44.19,44.54-44.19s44.6,19.63,44.6,44.19
			C431.5,671.88,411.35,691.16,386.9,691.16z M415.64,647.2c0-16.04-12.52-29.2-28.73-29.2c-16.16,0-28.74,13.16-28.74,29.2
			c0,15.98,12.64,29.09,28.74,29.09S415.64,663.18,415.64,647.2z"/>
		<path class="st1" d="M502.61,604.95v12.28l-48.36,57h48.36v14.99h-69.4v-12.28l48.48-57h-48.48v-14.98H502.61z"/>
	</g>
	<g class="st0">
		<path class="st1" d="M174.53,604.95v14.81H134.8v17.8h29.5v14.93h-29.5v36.73h-15.69v-84.27H174.53z"/>
		<path class="st1" d="M219.95,691.16c-24.45,0-44.54-19.33-44.54-43.96c0-24.56,20.1-44.19,44.54-44.19s44.6,19.63,44.6,44.19
			C264.56,671.88,244.4,691.16,219.95,691.16z M248.69,647.2c0-16.04-12.52-29.2-28.74-29.2c-16.16,0-28.74,13.16-28.74,29.2
			c0,15.98,12.63,29.09,28.74,29.09S248.69,663.18,248.69,647.2z"/>
		<path class="st1" d="M304.81,660.13h-14.1v29.09h-15.87v-84.27h32.03c15.34,0,29.15,11.81,29.15,27.62
			c0,9.99-5.64,19.98-15.1,23.86l20.86,32.79h-18.75L304.81,660.13z M290.35,645.55h16.51c7.35,0,13.22-5.11,13.22-12.63
			c0-7.46-5.94-12.63-13.22-12.63h-16.51V645.55z"/>
		<path class="st1" d="M386.9,691.16c-24.45,0-44.54-19.33-44.54-43.96c0-24.56,20.1-44.19,44.54-44.19s44.6,19.63,44.6,44.19
			C431.5,671.88,411.35,691.16,386.9,691.16z M415.64,647.2c0-16.04-12.52-29.2-28.73-29.2c-16.16,0-28.74,13.16-28.74,29.2
			c0,15.98,12.64,29.09,28.74,29.09S415.64,663.18,415.64,647.2z"/>
		<path class="st1" d="M502.61,604.95v12.28l-48.36,57h48.36v14.99h-69.4v-12.28l48.48-57h-48.48v-14.98H502.61z"/>
	</g>
</g>
<path class="st1" d="M220.49,544.52c32.06-2.58,26.01-32.56,31.6-56.01c3.45-14.44,11.72-26.2,25.13-32.91
	c6.42-3.21,15.3-5.91,22.34-4.67c-0.24,6.78,0.37,13.69,0.07,20.49c-1.99,46.03-15.17,99.07-69.3,104.83H118.37
	c0.12-6.28-0.14-12.61-0.02-18.91c1.73-93.38-1.03-186.96,0.59-280.29c0.35-19.64-0.99-35.01,4.94-54.19
	c9.1-29.44,35.11-57.17,64.57-66.84c17.74-5.83,36.09-3.82,54.51-4.08c76.74-1.12,153.64-1.33,230.51-1.15l1.88,0.84
	c-4.27,7.36-10.94,13.43-17.88,18.24c-13.47,9.35-27.89,13.8-44.23,14.91H212.84c-34.45,3.94-58.1,32.32-61.6,65.96l-0.56,293.76
	h69.8L220.49,544.52z"/>
<path class="st1" d="M415.91,295.63c-41.88,26.83-88.52,20.39-135.73,25.5c-39.51,4.27-67.78,15.96-90.52,49.64
	c-0.63,0.92-4.88,10.19-6.66,8.39c-0.65-3.7-2.09-7.57-2.7-11.27c-3.82-23.28-2.23-51.26,10.34-71.7
	c28.88-46.9,98.7-46.55,147.09-51.66c42.47-4.48,91.48-10.69,125.6-38.65c2.63-2.16,5.51-5.7,8.18-7.69
	c0.61-0.47,0.99-1.01,1.94-0.8c0.94,0.61,0.63,0.85,0.59,1.64c-1.26,38.6-26.27,76.2-58.13,96.61H415.91z"/>
<path class="st1" d="M247.82,441.82c-15,12.42-22.95,28.52-27.07,47.41c-2.15,1.48-9.72-9.24-10.74-10.87
	c-14.46-22.9-17.69-57.26-6.3-82.01c14.77-32.09,51.73-43.31,84.19-47.23c41.62-5.02,84.44-4.34,123.21-22.43
	c3.05-1.43,12.23-7.22,14.28-7.64c3.51-0.72,0.58,6.54,0.26,7.95c-6.59,29.81-27.92,60.44-54.51,75.8
	C331.7,425.62,285.15,410.9,247.82,441.82z"/>
<path class="st1" d="M506.57,180.96c-0.7,2.6,1.29,4.76,1.6,6.89c2.97,19.43,0.4,48.91,0.56,69.52
	c0.44,56.09,0.45,112.9,0.68,168.61c0.14,35.9,4.62,66.96-13.92,99.54c-17.67,31.03-48.66,49.8-84.45,51.33
	c-43.74,1.88-88.05-0.8-132,0.51c-0.91,0.03-5.67,1.5-4.38-1.08c0.56-1.12,8.9-6.87,10.69-8.48c4.24-3.78,8.55-8.7,11.93-13.26
	c1.29-1.73,4.5-7.83,5.97-8.27l88.6-0.09c17.3-0.94,33.16-0.59,48.91-8.6c23.01-11.7,35.95-35.53,38.42-60.68V270.49
	c15.47-23.34,23.28-49.88,25.17-77.77c0.26-3.87-0.17-7.88,0-11.77h2.18L506.57,180.96z"/>
</svg>
